<mxfile host="app.diagrams.net" modified="2022-08-19T05:44:31.205Z" agent="5.0 (Windows NT 10.0; Win64; x64) AppleWebKit/537.36 (KHTML, like Gecko) Chrome/104.0.0.0 Safari/537.36" etag="KxWOYv-sIKV1Y-8qYeLV" version="20.2.5" type="github">
  <diagram name="Page-1" id="fbcf5db9-b524-4cd4-e4f3-379dc89c3999">
    <mxGraphModel dx="1038" dy="544" grid="1" gridSize="10" guides="1" tooltips="1" connect="1" arrows="1" fold="1" page="1" pageScale="1" pageWidth="850" pageHeight="1100" background="none" math="0" shadow="0">
      <root>
        <mxCell id="0" />
        <mxCell id="1" parent="0" />
        <mxCell id="2a0f93b5c73ef8e7-1" value="" style="line;strokeWidth=10;direction=south;html=1;fillColor=none;fontSize=13;fontColor=#000000;align=center;strokeColor=#AE4132;" parent="1" vertex="1">
          <mxGeometry x="360" y="130" width="10" height="1050" as="geometry" />
        </mxCell>
        <mxCell id="2a0f93b5c73ef8e7-2" value="" style="rounded=1;whiteSpace=wrap;html=1;strokeColor=#006EAF;strokeWidth=1;fillColor=#1ba1e2;fontSize=13;align=center;gradientDirection=east;verticalAlign=top;shadow=1;fontColor=#ffffff;" parent="1" vertex="1">
          <mxGeometry x="170" y="135" width="240" height="85" as="geometry" />
        </mxCell>
        <mxCell id="2a0f93b5c73ef8e7-3" value="1" style="text;html=1;strokeColor=none;fillColor=none;align=center;verticalAlign=middle;whiteSpace=wrap;fontSize=30;fontColor=#FFFFFF;" parent="1" vertex="1">
          <mxGeometry x="170" y="167.5" width="40" height="20" as="geometry" />
        </mxCell>
        <mxCell id="2a0f93b5c73ef8e7-4" value="" style="rounded=1;whiteSpace=wrap;html=1;strokeColor=none;strokeWidth=1;fillColor=#10739E;fontSize=13;fontColor=#FFFFFF;align=center;gradientColor=none;gradientDirection=east;verticalAlign=top;shadow=1;" parent="1" vertex="1">
          <mxGeometry x="340" y="250" width="220" height="85" as="geometry" />
        </mxCell>
        <mxCell id="2a0f93b5c73ef8e7-5" value="2" style="text;html=1;strokeColor=none;fillColor=none;align=center;verticalAlign=middle;whiteSpace=wrap;fontSize=30;fontColor=#FFFFFF;" parent="1" vertex="1">
          <mxGeometry x="345" y="282.5" width="40" height="20" as="geometry" />
        </mxCell>
        <mxCell id="2a0f93b5c73ef8e7-6" value="" style="rounded=1;whiteSpace=wrap;html=1;strokeColor=#006EAF;strokeWidth=1;fillColor=#1ba1e2;fontSize=13;align=center;gradientDirection=east;verticalAlign=top;shadow=1;fontColor=#ffffff;" parent="1" vertex="1">
          <mxGeometry x="170" y="360" width="220" height="85" as="geometry" />
        </mxCell>
        <mxCell id="2a0f93b5c73ef8e7-7" value="3" style="text;html=1;strokeColor=none;fillColor=none;align=center;verticalAlign=middle;whiteSpace=wrap;fontSize=30;fontColor=#FFFFFF;" parent="1" vertex="1">
          <mxGeometry x="170" y="392.5" width="40" height="20" as="geometry" />
        </mxCell>
        <mxCell id="2a0f93b5c73ef8e7-8" value="" style="rounded=1;whiteSpace=wrap;html=1;strokeColor=none;strokeWidth=1;fillColor=#10739E;fontSize=13;fontColor=#FFFFFF;align=center;gradientColor=none;gradientDirection=east;verticalAlign=top;shadow=1;" parent="1" vertex="1">
          <mxGeometry x="340" y="475" width="220" height="85" as="geometry" />
        </mxCell>
        <mxCell id="2a0f93b5c73ef8e7-9" value="4" style="text;html=1;strokeColor=none;fillColor=none;align=center;verticalAlign=middle;whiteSpace=wrap;fontSize=30;fontColor=#FFFFFF;" parent="1" vertex="1">
          <mxGeometry x="340" y="507.5" width="40" height="20" as="geometry" />
        </mxCell>
        <mxCell id="2a0f93b5c73ef8e7-10" value="" style="rounded=1;whiteSpace=wrap;html=1;strokeColor=#006EAF;strokeWidth=1;fillColor=#1ba1e2;fontSize=13;align=center;gradientDirection=east;verticalAlign=top;shadow=1;fontColor=#ffffff;" parent="1" vertex="1">
          <mxGeometry x="170" y="590" width="220" height="85" as="geometry" />
        </mxCell>
        <mxCell id="2a0f93b5c73ef8e7-11" value="5" style="text;html=1;strokeColor=none;fillColor=none;align=center;verticalAlign=middle;whiteSpace=wrap;fontSize=30;fontColor=#FFFFFF;" parent="1" vertex="1">
          <mxGeometry x="170" y="622.5" width="40" height="20" as="geometry" />
        </mxCell>
        <mxCell id="2a0f93b5c73ef8e7-12" value="" style="rounded=1;whiteSpace=wrap;html=1;strokeColor=none;strokeWidth=1;fillColor=#10739E;fontSize=13;fontColor=#FFFFFF;align=center;gradientColor=none;gradientDirection=east;verticalAlign=top;shadow=1;" parent="1" vertex="1">
          <mxGeometry x="340" y="705" width="220" height="85" as="geometry" />
        </mxCell>
        <mxCell id="2a0f93b5c73ef8e7-13" value="6" style="text;html=1;strokeColor=none;fillColor=none;align=center;verticalAlign=middle;whiteSpace=wrap;fontSize=30;fontColor=#FFFFFF;" parent="1" vertex="1">
          <mxGeometry x="340" y="737.5" width="40" height="20" as="geometry" />
        </mxCell>
        <mxCell id="2a0f93b5c73ef8e7-14" value="" style="rounded=1;whiteSpace=wrap;html=1;strokeColor=#006EAF;strokeWidth=1;fillColor=#1ba1e2;fontSize=13;align=center;gradientDirection=east;verticalAlign=top;shadow=1;fontColor=#ffffff;" parent="1" vertex="1">
          <mxGeometry x="170" y="830" width="220" height="85" as="geometry" />
        </mxCell>
        <mxCell id="2a0f93b5c73ef8e7-15" value="7" style="text;html=1;strokeColor=none;fillColor=none;align=center;verticalAlign=middle;whiteSpace=wrap;fontSize=30;fontColor=#FFFFFF;" parent="1" vertex="1">
          <mxGeometry x="170" y="862.5" width="40" height="20" as="geometry" />
        </mxCell>
        <mxCell id="2a0f93b5c73ef8e7-16" value="" style="rounded=1;whiteSpace=wrap;html=1;strokeColor=none;strokeWidth=1;fillColor=#10739E;fontSize=13;fontColor=#FFFFFF;align=center;gradientColor=none;gradientDirection=east;verticalAlign=top;shadow=1;" parent="1" vertex="1">
          <mxGeometry x="340" y="945" width="220" height="85" as="geometry" />
        </mxCell>
        <mxCell id="2a0f93b5c73ef8e7-17" value="8" style="text;html=1;strokeColor=none;fillColor=none;align=center;verticalAlign=middle;whiteSpace=wrap;fontSize=30;fontColor=#FFFFFF;" parent="1" vertex="1">
          <mxGeometry x="340" y="977.5" width="40" height="20" as="geometry" />
        </mxCell>
        <mxCell id="2a0f93b5c73ef8e7-18" value="&lt;h1&gt;&lt;font style=&quot;vertical-align: inherit;&quot;&gt;&lt;font style=&quot;vertical-align: inherit;&quot;&gt;&lt;font style=&quot;vertical-align: inherit;&quot;&gt;&lt;font style=&quot;vertical-align: inherit;&quot;&gt;&lt;font style=&quot;vertical-align: inherit;&quot;&gt;&lt;font style=&quot;vertical-align: inherit;&quot;&gt;&lt;font style=&quot;vertical-align: inherit;&quot;&gt;&lt;font style=&quot;vertical-align: inherit; font-size: 16px;&quot;&gt;INICIO DEL PROYECTO&lt;/font&gt;&lt;/font&gt;&lt;/font&gt;&lt;/font&gt;&lt;/font&gt;&lt;/font&gt;&lt;/font&gt;&lt;/font&gt;&lt;/h1&gt;&lt;div&gt;&lt;font style=&quot;vertical-align: inherit;&quot;&gt;&lt;font style=&quot;vertical-align: inherit;&quot;&gt;&lt;font style=&quot;vertical-align: inherit;&quot;&gt;&lt;font size=&quot;1&quot; style=&quot;vertical-align: inherit;&quot;&gt;&lt;b style=&quot;&quot;&gt;&lt;font style=&quot;vertical-align: inherit;&quot;&gt;&lt;font style=&quot;vertical-align: inherit; font-size: 14px;&quot;&gt;&lt;font style=&quot;vertical-align: inherit;&quot;&gt;&lt;font style=&quot;vertical-align: inherit;&quot;&gt;&lt;font style=&quot;vertical-align: inherit;&quot;&gt;&lt;font style=&quot;vertical-align: inherit;&quot;&gt;29 de Noviembre de 2021&lt;/font&gt;&lt;/font&gt;&lt;/font&gt;&lt;/font&gt;&lt;/font&gt;&lt;/font&gt;&lt;/b&gt;&lt;/font&gt;&lt;/font&gt;&lt;/font&gt;&lt;/font&gt;&lt;/div&gt;" style="text;html=1;spacing=5;spacingTop=-20;whiteSpace=wrap;overflow=hidden;strokeColor=none;strokeWidth=4;fillColor=none;gradientColor=#007FFF;fontSize=9;fontColor=#FFFFFF;align=center;" parent="1" vertex="1">
          <mxGeometry x="205" y="150" width="190" height="77" as="geometry" />
        </mxCell>
        <mxCell id="hsR2R4_7xVd532EWI_It-1" value="" style="rounded=1;whiteSpace=wrap;html=1;strokeColor=#006EAF;strokeWidth=1;fillColor=#1ba1e2;fontSize=13;align=center;gradientDirection=east;verticalAlign=top;shadow=1;fontColor=#ffffff;" vertex="1" parent="1">
          <mxGeometry x="170" y="1090" width="240" height="85" as="geometry" />
        </mxCell>
        <mxCell id="hsR2R4_7xVd532EWI_It-2" value="&lt;h1 style=&quot;&quot;&gt;&lt;span style=&quot;font-size: 16px;&quot;&gt;CIERRE DEL PROYECTO&lt;/span&gt;&lt;/h1&gt;&lt;p style=&quot;font-size: 14px;&quot;&gt;31 de Enero de 2023&lt;/p&gt;" style="text;html=1;spacing=5;spacingTop=-20;whiteSpace=wrap;overflow=hidden;strokeColor=none;strokeWidth=4;fillColor=none;gradientColor=#007FFF;fontSize=14;fontColor=#FFFFFF;align=center;" vertex="1" parent="1">
          <mxGeometry x="205" y="1090" width="200" height="77" as="geometry" />
        </mxCell>
        <mxCell id="hsR2R4_7xVd532EWI_It-3" value="&lt;font style=&quot;vertical-align: inherit;&quot;&gt;&lt;font style=&quot;vertical-align: inherit;&quot;&gt;9&lt;/font&gt;&lt;/font&gt;" style="text;html=1;strokeColor=none;fillColor=none;align=center;verticalAlign=middle;whiteSpace=wrap;fontSize=30;fontColor=#FFFFFF;" vertex="1" parent="1">
          <mxGeometry x="170" y="1122.5" width="40" height="20" as="geometry" />
        </mxCell>
        <mxCell id="hsR2R4_7xVd532EWI_It-5" value="&lt;p style=&quot;line-height: 0.9;&quot;&gt;ElaboraciÃ³n Historias de Usuario&lt;br&gt;&lt;font style=&quot;font-size: 14px; line-height: 1.1;&quot;&gt;&lt;br&gt;22 de Diciembre de 2021&lt;/font&gt;&lt;/p&gt;" style="text;html=1;strokeColor=none;fillColor=none;align=center;verticalAlign=middle;whiteSpace=wrap;rounded=0;fontSize=16;fontStyle=1;fontColor=#FFFFFF;" vertex="1" parent="1">
          <mxGeometry x="380" y="277.5" width="175" height="30" as="geometry" />
        </mxCell>
        <mxCell id="hsR2R4_7xVd532EWI_It-7" value="&lt;p style=&quot;line-height: 0.9;&quot;&gt;Inicio desarrollos&amp;nbsp;&lt;br&gt;&lt;font style=&quot;font-size: 14px; line-height: 1.1;&quot;&gt;&lt;br&gt;31 de Enero de 2022&lt;/font&gt;&lt;/p&gt;" style="text;html=1;strokeColor=none;fillColor=none;align=center;verticalAlign=middle;whiteSpace=wrap;rounded=0;fontSize=16;fontStyle=1;fontColor=#FFFFFF;" vertex="1" parent="1">
          <mxGeometry x="205" y="387.5" width="175" height="30" as="geometry" />
        </mxCell>
        <mxCell id="hsR2R4_7xVd532EWI_It-8" value="&lt;p style=&quot;line-height: 0.9;&quot;&gt;FinalizaciÃ³n desarrollos&lt;br&gt;&lt;font style=&quot;font-size: 14px; line-height: 1.1;&quot;&gt;&lt;br&gt;21 de Noviembre de 2022&lt;/font&gt;&lt;/p&gt;" style="text;html=1;strokeColor=none;fillColor=none;align=center;verticalAlign=middle;whiteSpace=wrap;rounded=0;fontSize=16;fontStyle=1;fontColor=#FFFFFF;" vertex="1" parent="1">
          <mxGeometry x="380" y="502.5" width="175" height="30" as="geometry" />
        </mxCell>
        <mxCell id="hsR2R4_7xVd532EWI_It-9" value="&lt;p style=&quot;line-height: 0.9;&quot;&gt;Inicio de Pruebas&lt;br&gt;&lt;font style=&quot;font-size: 14px; line-height: 1.1;&quot;&gt;&lt;br&gt;28 de Noviembre de 2022&lt;/font&gt;&lt;/p&gt;" style="text;html=1;strokeColor=none;fillColor=none;align=center;verticalAlign=middle;whiteSpace=wrap;rounded=0;fontSize=16;fontStyle=1;fontColor=#FFFFFF;" vertex="1" parent="1">
          <mxGeometry x="210" y="617.5" width="175" height="30" as="geometry" />
        </mxCell>
        <mxCell id="hsR2R4_7xVd532EWI_It-10" value="&lt;p style=&quot;line-height: 0.9;&quot;&gt;&lt;font style=&quot;font-size: 14px; line-height: 1.1;&quot;&gt;TerminaciÃ³n Pruebas&lt;/font&gt;&lt;/p&gt;&lt;p style=&quot;line-height: 0.9;&quot;&gt;&lt;font style=&quot;font-size: 14px; line-height: 1.1;&quot;&gt;16 de Enero de 2023&lt;/font&gt;&lt;/p&gt;" style="text;html=1;strokeColor=none;fillColor=none;align=center;verticalAlign=middle;whiteSpace=wrap;rounded=0;fontSize=16;fontStyle=1;fontColor=#FFFFFF;" vertex="1" parent="1">
          <mxGeometry x="380" y="732.5" width="175" height="30" as="geometry" />
        </mxCell>
        <mxCell id="hsR2R4_7xVd532EWI_It-11" value="&lt;p style=&quot;line-height: 0.9;&quot;&gt;&lt;font style=&quot;font-size: 14px; line-height: 1.1;&quot;&gt;ImplementaciÃ³n&amp;nbsp;&lt;/font&gt;&lt;/p&gt;&lt;p style=&quot;line-height: 0.9;&quot;&gt;&lt;font style=&quot;font-size: 14px; line-height: 1.1;&quot;&gt;17 de Enero de 2023&lt;/font&gt;&lt;/p&gt;" style="text;html=1;strokeColor=none;fillColor=none;align=center;verticalAlign=middle;whiteSpace=wrap;rounded=0;fontSize=16;fontStyle=1;fontColor=#FFFFFF;" vertex="1" parent="1">
          <mxGeometry x="210" y="857.5" width="175" height="30" as="geometry" />
        </mxCell>
        <mxCell id="hsR2R4_7xVd532EWI_It-12" value="&lt;p style=&quot;line-height: 0.9;&quot;&gt;&lt;font style=&quot;font-size: 14px; line-height: 1.1;&quot;&gt;Capacitaciones&lt;/font&gt;&lt;/p&gt;&lt;p style=&quot;line-height: 0.9;&quot;&gt;&lt;font style=&quot;font-size: 14px; line-height: 1.1;&quot;&gt;23 de Enero de 2023&lt;/font&gt;&lt;/p&gt;" style="text;html=1;strokeColor=none;fillColor=none;align=center;verticalAlign=middle;whiteSpace=wrap;rounded=0;fontSize=16;fontStyle=1;fontColor=#FFFFFF;" vertex="1" parent="1">
          <mxGeometry x="380" y="972.5" width="175" height="30" as="geometry" />
        </mxCell>
      </root>
    </mxGraphModel>
  </diagram>
</mxfile>
